<svg width="321" height="26" viewBox="0 0 321 26" fill="none" xmlns="http://www.w3.org/2000/svg">
<path d="M109.695 19.3968H109.651C108.32 20.503 107.791 20.7856 105.632 20.7856H102.819C102.141 20.7856 101.954 20.5812 101.954 19.3968V14.8577H105.806C106.59 14.8577 107.057 15.1643 107.33 15.3868H107.393L107.243 13.7515H101.954V9.31463C101.954 9.0501 102.122 8.55712 102.819 8.55712H105.632C107.368 8.55712 107.872 8.88177 108.743 9.56112H108.786L108.258 7.45692H98.4825V7.51703C99.2851 8.08817 99.478 8.7014 99.478 9.70541V19.6373C99.478 20.6413 99.2851 21.2545 98.4825 21.8257V21.8858H109.042L109.695 19.3908V19.3968ZM94.0585 11.1603C94.0585 13.1623 92.5341 14.1242 90.6923 14.1242H89.1057V9.44089C89.1057 8.68337 89.2986 8.56313 89.9519 8.56313H90.9474C92.7892 8.56313 94.0585 9.15831 94.0585 11.1603ZM98.9056 21.8918V21.8317C97.7234 21.3387 96.7714 20.7495 95.9438 19.3788L93.3181 14.984C95.3465 14.4729 96.7465 13.1864 96.7465 11.1603C96.7465 8.503 94.6496 7.46293 91.2897 7.46293H85.6648V7.52305C86.4675 8.09419 86.6168 8.70742 86.6168 9.71143V19.6433C86.6168 20.6473 86.4675 21.2605 85.6648 21.8317V21.8918H90.0452V21.8317C89.2426 21.2605 89.1119 20.6473 89.1119 19.6433V15.2305H89.9581C90.6363 15.2305 90.6799 15.2485 91.1217 16.006L93.5359 20.0762C94.575 21.8136 95.5021 21.8978 96.6034 21.8978H98.9118L98.9056 21.8918ZM84.6008 7.52305V7.46293H80.2017V7.52305C81.0044 8.09419 81.1537 8.70742 81.1537 9.71143V19.6433C81.1537 20.6473 81.0044 21.2605 80.2017 21.8317V21.8918H84.5822V21.8317C83.7795 21.2605 83.6488 20.6473 83.6488 19.6433V9.71143C83.6488 8.70742 83.7982 8.09419 84.6008 7.52305ZM79.4613 7.52305V7.46293H75.9084V7.52305C76.4373 7.99199 76.6676 8.4008 76.6676 8.9539C76.6676 9.24248 76.624 9.5491 76.5182 9.91583L74.4898 17.7856L70.3458 7.36072H70.0098C69.0765 7.36072 68.6347 7.81163 68.3174 8.68938L64.9761 18.1764L62.8419 10C62.7174 9.48898 62.6117 9.06212 62.6117 8.67134C62.6117 8.26252 62.761 7.89579 63.1592 7.52906V7.46893H58.6979V7.52906C59.5255 8.16032 59.7992 8.49099 60.241 10.1443L63.433 22.0601H63.601C64.7645 22.0601 65.3121 21.2004 65.7601 19.9739L69.0392 10.8958L72.6978 20.2385C73.2454 21.6693 73.8614 22.0601 74.6018 22.0601H74.7698L78.1546 9.59119C78.472 8.40682 78.8329 8.14228 79.4675 7.52906L79.4613 7.52305ZM58.5797 17.4549C58.5797 15.02 57.4162 13.6132 53.5211 11.6894C49.6509 9.78958 48.8482 9.0501 48.8482 7.64329C48.8482 5.98998 50.4349 5.25051 52.0215 5.25051C53.9877 5.25051 56.0846 6.15231 57.2482 7.19239H57.3104L56.5699 4.45091C55.4686 4.12626 53.8633 3.85571 52.2331 3.85571C49.2091 3.85571 46.098 4.85972 46.098 7.9018C46.098 10.6613 48.2136 12.008 51.5362 13.7275C54.3922 15.2004 55.5993 15.7715 55.5993 17.4669C55.5993 19.7996 53.9255 20.7976 52.0029 20.7976C50.0802 20.7976 48.1513 19.98 45.7434 17.7134H45.6562L46.5211 20.8216C47.9833 21.6994 50.074 22.2705 52.0029 22.2705C55.1948 22.2705 58.5797 20.8998 58.5797 17.4489V17.4549Z" fill="white"/>
<path d="M1 1.0061H38.2646V25.0001H1V1.0061Z" fill="white"/>
<path d="M38.2644 1.22241L19.6353 13L38.2644 24.7775V1.22241Z" fill="#EF373E"/>
<path d="M1 1.22241L19.6354 13L1 24.7775V1.22241Z" fill="#EF373E"/>
<path d="M17.1528 1.3186H22.1181V24.6813H17.1528V1.3186Z" fill="#00468B"/>
<path d="M38.2646 25H1V1H38.2584V25H38.2646ZM37.5988 1.63727H1.66577V24.3567H37.605V1.63727H37.5988Z" fill="black"/>
<path d="M38.2646 25H1V1H38.2584V25H38.2646ZM37.5988 1.63727H1.66577V24.3567H37.605V1.63727H37.5988Z" stroke="black" stroke-width="0.155554" stroke-miterlimit="3.86"/>
<path d="M154.053 7.51105V7.45093H150.475V7.51105C151.278 8.08219 151.471 8.69542 151.471 9.69943V18.7355L143.264 7.61325C143.176 7.49301 143.096 7.45093 142.928 7.45093H139.841V7.51105C140.644 8.08219 140.812 8.69542 140.812 9.69943V19.6313C140.812 20.6353 140.644 21.2485 139.841 21.8197V21.8798H143.438V21.8197C142.635 21.2485 142.442 20.6353 142.442 19.6313V10.5531L149.697 20.4249C150.817 21.9579 151.539 22.2646 152.852 22.2646H153.082V9.69342C153.082 8.68941 153.25 8.07619 154.053 7.50504V7.51105Z" fill="white"/>
<path d="M138.945 19.4631H138.902C137.57 20.5693 137.041 20.8518 134.882 20.8518H132.07C131.392 20.8518 131.205 20.6474 131.205 19.4631V14.924H135.056C135.84 14.924 136.307 15.2306 136.581 15.4531H136.643L136.494 13.8178H131.205V9.38091C131.205 9.11638 131.373 8.62339 132.07 8.62339H134.882C136.618 8.62339 137.122 8.94804 137.993 9.6274H138.037L137.508 7.52319H127.733V7.58331C128.536 8.15445 128.728 8.76768 128.728 9.77168V19.7036C128.728 20.7076 128.536 21.3208 127.733 21.8919V21.952H138.292L138.945 19.457V19.4631Z" fill="white"/>
<path d="M166.335 19.4631H166.292C164.96 20.5693 164.431 20.8518 162.272 20.8518H159.46C158.782 20.8518 158.595 20.6474 158.595 19.4631V14.924H162.447C163.231 14.924 163.697 15.2306 163.971 15.4531H164.033L163.884 13.8178H158.595V9.38091C158.595 9.11638 158.763 8.62339 159.46 8.62339H162.272C164.008 8.62339 164.512 8.94804 165.383 9.6274H165.427L164.898 7.52319H155.123V7.58331C155.926 8.15445 156.119 8.76768 156.119 9.77168V19.7036C156.119 20.7076 155.926 21.3208 155.123 21.8919V21.952H165.682L166.335 19.4571V19.4631Z" fill="white"/>
<path d="M235.333 19.4631H235.289C233.958 20.5693 233.429 20.8518 231.27 20.8518H228.457C227.779 20.8518 227.593 20.6474 227.593 19.4631V14.924H231.444C232.228 14.924 232.695 15.2306 232.969 15.4531H233.031L232.881 13.8178H227.593V9.38091C227.593 9.11638 227.761 8.62339 228.457 8.62339H231.27C233.006 8.62339 233.51 8.94804 234.381 9.6274H234.425L233.896 7.52319H224.121V7.58331C224.923 8.15445 225.116 8.76768 225.116 9.77168V19.7036C225.116 20.7076 224.923 21.3208 224.121 21.8919V21.952H234.68L235.333 19.4571V19.4631Z" fill="white" stroke="white" stroke-width="0.0311109" stroke-miterlimit="10"/>
<path d="M125.195 19.4449L122.569 15.0501C124.597 14.5391 125.997 13.2525 125.997 11.2264C125.997 8.56913 123.9 7.52905 120.54 7.52905H114.916V7.58918C115.718 8.16032 115.868 8.77354 115.868 9.77755V19.7094C115.868 20.7134 115.718 21.3266 114.916 21.8978V21.9579H119.296V21.8978C118.493 21.3266 118.363 20.7134 118.363 19.7094V15.2966H119.209C119.887 15.2966 119.931 15.3146 120.372 16.0721L122.787 20.1423C123.826 21.8797 124.753 21.9639 125.854 21.9639H128.163V21.9038C126.98 21.4108 126.028 20.8216 125.201 19.4509L125.195 19.4449ZM119.943 14.1904H118.356V9.507C118.356 8.74949 118.549 8.62925 119.203 8.62925H120.198C122.04 8.62925 123.309 9.22444 123.309 11.2264C123.309 13.2284 121.785 14.1904 119.943 14.1904Z" fill="white"/>
<path d="M186.993 7.69138V7.63126H183.44V7.69138C183.969 8.16032 184.199 8.56913 184.199 9.12223C184.199 9.41081 184.156 9.71743 184.05 10.0842L182.022 17.9539L177.878 7.52905H177.542C176.608 7.52905 176.167 7.97996 175.849 8.85771L172.508 18.3447L170.374 10.1683C170.249 9.65731 170.143 9.23046 170.143 8.83968C170.143 8.43086 170.293 8.06412 170.691 7.69739V7.63727H166.23V7.69739C167.057 8.32865 167.331 8.65932 167.773 10.3126L170.965 22.2284H171.133C172.296 22.2284 172.844 21.3687 173.292 20.1423L176.571 11.0641L180.23 20.4068C180.777 21.8377 181.393 22.2284 182.134 22.2284H182.302L185.686 9.75952C186.004 8.57515 186.365 8.31061 186.999 7.69739L186.993 7.69138Z" fill="white"/>
<path d="M194.808 22.0602C194.939 21.946 195.032 21.7957 195.088 21.5973C195.144 21.429 195.175 21.2125 195.175 20.948C195.175 20.6835 195.12 20.3588 195.001 19.9861L194.155 17.4731H188.798L187.976 19.9861C187.846 20.3648 187.784 20.6835 187.784 20.948C187.784 21.2125 187.815 21.429 187.871 21.5973C187.927 21.7957 188.032 21.946 188.176 22.0602H184.859C185.064 21.946 185.264 21.7957 185.469 21.5973C185.624 21.429 185.799 21.2125 185.992 20.948C186.178 20.6835 186.34 20.3588 186.471 19.9861L190.092 9.19451C190.21 8.81575 190.266 8.49711 190.266 8.2386C190.266 7.98008 190.235 7.76364 190.179 7.60132C190.123 7.40292 190.03 7.24661 189.899 7.12036H191.753C192.189 7.12036 192.581 7.2406 192.936 7.48709C193.29 7.73359 193.539 8.05823 193.682 8.46104L197.546 19.9861C197.677 20.3648 197.832 20.6835 198.013 20.948C198.193 21.2125 198.374 21.429 198.542 21.5973C198.728 21.7957 198.934 21.946 199.151 22.0602H194.827H194.808ZM193.832 16.4029L191.486 9.29671L189.146 16.4029H193.832Z" fill="white" stroke="white" stroke-width="0.0311109" stroke-miterlimit="10"/>
<path d="M207.707 14.1363C208.721 14.3768 209.523 14.8397 210.115 15.5431C210.706 16.2465 211.004 17.0942 211.004 18.0982C211.004 18.6874 210.88 19.2225 210.637 19.7094C210.388 20.1964 210.04 20.6112 209.573 20.9539C209.113 21.2966 208.54 21.5672 207.868 21.7595C207.196 21.9579 206.431 22.0541 205.579 22.0541H199.854C200.016 21.9399 200.159 21.7896 200.29 21.5912C200.408 21.4229 200.508 21.2064 200.607 20.9419C200.7 20.6774 200.75 20.3527 200.75 19.98V9.1884C200.75 8.80965 200.7 8.49101 200.607 8.23249C200.514 7.97398 200.408 7.75755 200.29 7.59522C200.159 7.39682 200.016 7.24051 199.854 7.11426H205.299C206.742 7.11426 207.868 7.45093 208.671 8.13029C209.474 8.80965 209.878 9.71145 209.878 10.8417C209.878 11.5571 209.673 12.2004 209.268 12.7776C208.864 13.3547 208.341 13.8056 207.707 14.1303V14.1363ZM202.959 13.6553H204.552C205.062 13.6553 205.516 13.5832 205.915 13.4449C206.313 13.3066 206.649 13.1143 206.916 12.8678C207.184 12.6213 207.389 12.3447 207.539 12.0201C207.682 11.7014 207.756 11.3527 207.756 10.974C207.756 10.2225 207.532 9.60925 207.078 9.1343C206.624 8.65935 205.865 8.42488 204.788 8.42488H202.959V13.6433V13.6553ZM208.727 17.7856C208.727 17.3828 208.646 16.998 208.484 16.6313C208.323 16.2706 208.086 15.9519 207.769 15.6874C207.452 15.4229 207.053 15.2125 206.58 15.0561C206.108 14.8998 205.56 14.8277 204.938 14.8277H202.959V20.7375H204.894C206.039 20.7375 206.966 20.497 207.669 20.0161C208.372 19.5351 208.727 18.7896 208.727 17.7856Z" fill="white" stroke="white" stroke-width="0.0311109" stroke-miterlimit="10"/>
<path d="M219.018 20.7376C219.597 20.7376 220.107 20.6895 220.549 20.5933C220.991 20.4971 221.364 20.3889 221.663 20.2807C222.024 20.1424 222.329 19.9861 222.571 19.8177L222.161 22.0602H212.174C212.336 21.946 212.479 21.7957 212.61 21.5973C212.728 21.429 212.827 21.2125 212.927 20.948C213.02 20.6835 213.07 20.3588 213.07 19.9861V9.19451C213.07 8.81575 213.02 8.49711 212.927 8.2386C212.834 7.98008 212.728 7.76364 212.61 7.60132C212.479 7.40292 212.336 7.24661 212.174 7.12036H216.33C216.156 7.24661 216.007 7.40893 215.876 7.60132C215.758 7.76965 215.659 7.98008 215.571 8.2386C215.484 8.49711 215.441 8.81575 215.441 9.19451V20.7436H219.012L219.018 20.7376Z" fill="white" stroke="white" stroke-width="0.0311109" stroke-miterlimit="10"/>
<path d="M321 7.34263V7.30054H317.597V7.34263C317.87 7.69132 318.02 7.99793 318.02 8.34663C318.02 8.69533 317.87 9.0801 317.534 9.61517L314.89 13.7454L312.227 9.51297C311.928 9.04403 311.742 8.71337 311.742 8.38872C311.742 8.06407 311.804 7.77549 312.227 7.34863V7.30656H307.616V7.34863C308.462 8.14823 308.63 8.37068 309.414 9.61517L313.135 15.4589V19.4869C313.135 20.4909 312.986 21.1042 312.183 21.6753V21.7354H316.564V21.6753C315.761 21.1042 315.63 20.4909 315.63 19.4869V14.7855L319.034 9.61517C319.942 8.24443 320.154 7.96186 321 7.34863V7.34263Z" fill="white"/>
<path d="M307.249 21.2426V14.3949H303.777V14.455C304.71 15.2125 304.747 16.0482 304.747 17.0101V19.8298C304.747 20.443 304.623 20.5873 304.026 20.7316C303.478 20.8518 302.968 20.8939 302.458 20.8939C298.587 20.8939 296.702 17.6053 296.702 14.3708C296.702 11.1364 298.307 8.13636 301.867 8.13636C303.559 8.13636 305.164 8.6053 306.564 9.958H306.626L306.434 7.42094C305.164 7.07224 303.304 6.90991 302.053 6.90991C296.702 6.90991 294.014 10.8778 294.014 14.7616C294.014 18.6454 296.615 22.1203 302.352 22.1203C304.001 22.1203 305.693 21.8137 307.236 21.2426H307.249Z" fill="white"/>
<path d="M291.911 19.2164L289.285 14.8216C291.314 14.3106 292.714 13.024 292.714 10.9979C292.714 8.34062 290.617 7.30054 287.257 7.30054H281.632V7.36066C282.434 7.9318 282.584 8.54503 282.584 9.54904V19.4809C282.584 20.4849 282.434 21.0981 281.632 21.6693V21.7294H286.012V21.6693C285.21 21.0981 285.079 20.4849 285.079 19.4809V15.0681H285.925C286.603 15.0681 286.647 15.0861 287.089 15.8436L289.503 19.9138C290.542 21.6512 291.469 21.7354 292.57 21.7354H294.879V21.6753C293.697 21.1823 292.745 20.5931 291.917 19.2224L291.911 19.2164ZM286.666 13.9679H285.079V9.28451C285.079 8.52699 285.272 8.40676 285.925 8.40676H286.921C288.762 8.40676 290.032 9.00194 290.032 11.0039C290.032 13.0059 288.507 13.9679 286.666 13.9679Z" fill="white"/>
<path d="M280.674 19.2404H280.63C279.299 20.3466 278.77 20.6292 276.611 20.6292H273.799C273.12 20.6292 272.934 20.4248 272.934 19.2404V14.7013H276.785C277.569 14.7013 278.036 15.008 278.31 15.2304H278.372L278.222 13.5951H272.934V9.15826C272.934 8.89373 273.102 8.40074 273.799 8.40074H276.611C278.347 8.40074 278.851 8.72539 279.722 9.40474H279.766L279.237 7.30054H269.462V7.36066C270.264 7.9318 270.457 8.54503 270.457 9.54904V19.4809C270.457 20.4849 270.264 21.0981 269.462 21.6693V21.7294H280.021L280.674 19.2344V19.2404Z" fill="white"/>
<path d="M268.404 7.36066V7.30054H264.826V7.36066C265.629 7.9318 265.822 8.54503 265.822 9.54904V18.5851L257.615 7.46286C257.527 7.34262 257.447 7.30054 257.279 7.30054H254.192V7.36066C254.995 7.9318 255.163 8.54503 255.163 9.54904V19.4809C255.163 20.4849 254.995 21.0981 254.192 21.6693V21.7294H257.789V21.6693C256.986 21.0981 256.793 20.4849 256.793 19.4809V10.4027L264.048 20.2745C265.168 21.8075 265.89 22.1142 267.203 22.1142H267.433V9.54303C267.433 8.53902 267.601 7.92579 268.404 7.35465V7.36066Z" fill="white"/>
<path d="M253.235 19.2404H253.191C251.859 20.3466 251.331 20.6292 249.172 20.6292H246.359C245.681 20.6292 245.494 20.4248 245.494 19.2404V14.7013H249.346C250.13 14.7013 250.596 15.008 250.87 15.2304H250.932L250.783 13.5951H245.494V9.15826C245.494 8.89373 245.662 8.40074 246.359 8.40074H249.172C250.907 8.40074 251.411 8.72539 252.283 9.40474H252.326L251.797 7.30054H242.022V7.36066C242.825 7.9318 243.018 8.54503 243.018 9.54904V19.4809C243.018 20.4849 242.825 21.0981 242.022 21.6693V21.7294H252.581L253.235 19.2344V19.2404Z" fill="white"/>
</svg>
