<svg width="516" height="42" viewBox="0 0 516 42" fill="none" xmlns="http://www.w3.org/2000/svg">
<path d="M175.69 31.64H175.62C173.48 33.48 172.63 33.95 169.16 33.95H164.64C163.55 33.95 163.25 33.61 163.25 31.64V24.09H169.44C170.7 24.09 171.45 24.6 171.89 24.97H171.99L171.75 22.25H163.25V14.87C163.25 14.43 163.52 13.61 164.64 13.61H169.16C171.95 13.61 172.76 14.15 174.16 15.28H174.23L173.38 11.78H157.67V11.88C158.96 12.83 159.27 13.85 159.27 15.52V32.04C159.27 33.71 158.96 34.7301 157.67 35.6801V35.78H174.64L175.69 31.63V31.64ZM150.56 17.94C150.56 21.27 148.11 22.87 145.15 22.87H142.6V15.08C142.6 13.82 142.91 13.62 143.96 13.62H145.56C148.52 13.62 150.56 14.61 150.56 17.94ZM158.35 35.79V35.69C156.45 34.87 154.92 33.89 153.59 31.61L149.37 24.3C152.63 23.45 154.88 21.31 154.88 17.94C154.88 13.52 151.51 11.79 146.11 11.79H137.07V11.89C138.36 12.84 138.6 13.86 138.6 15.53V32.05C138.6 33.72 138.36 34.74 137.07 35.69V35.79H144.11V35.69C142.82 34.74 142.61 33.72 142.61 32.05V24.71H143.97C145.06 24.71 145.13 24.74 145.84 26L149.72 32.7701C151.39 35.66 152.88 35.8 154.65 35.8H158.36L158.35 35.79ZM135.36 11.89V11.79H128.29V11.89C129.58 12.84 129.82 13.86 129.82 15.53V32.05C129.82 33.72 129.58 34.74 128.29 35.69V35.79H135.33V35.69C134.04 34.74 133.83 33.72 133.83 32.05V15.53C133.83 13.86 134.07 12.84 135.36 11.89ZM127.1 11.89V11.79H121.39V11.89C122.24 12.67 122.61 13.35 122.61 14.27C122.61 14.75 122.54 15.26 122.37 15.87L119.11 28.96L112.45 11.62H111.91C110.41 11.62 109.7 12.37 109.19 13.83L103.82 29.61L100.39 16.01C100.19 15.16 100.02 14.45 100.02 13.8C100.02 13.12 100.26 12.51 100.9 11.9V11.8H93.7295V11.9C95.0595 12.95 95.4995 13.5 96.2095 16.25L101.34 36.07H101.61C103.48 36.07 104.36 34.64 105.08 32.6L110.35 17.5L116.23 33.04C117.11 35.42 118.1 36.07 119.29 36.07H119.56L125 15.33C125.51 13.36 126.09 12.92 127.11 11.9L127.1 11.89ZM93.5395 28.41C93.5395 24.36 91.6695 22.02 85.4095 18.82C79.1895 15.66 77.8995 14.43 77.8995 12.09C77.8995 9.34004 80.4495 8.11005 82.9995 8.11005C86.1595 8.11005 89.5295 9.61004 91.3995 11.34H91.4995L90.3095 6.78004C88.5395 6.24004 85.9595 5.79004 83.3395 5.79004C78.4795 5.79004 73.4795 7.46003 73.4795 12.52C73.4795 17.11 76.8795 19.35 82.2195 22.21C86.8095 24.66 88.7495 25.61 88.7495 28.43C88.7495 32.31 86.0595 33.97 82.9695 33.97C79.8795 33.97 76.7795 32.61 72.9095 28.84H72.7695L74.1595 34.01C76.5095 35.47 79.8695 36.42 82.9695 36.42C88.0995 36.42 93.5395 34.14 93.5395 28.4V28.41Z" fill="#231F20"/>
<path d="M1 1.0498H60.89V40.9598H1V1.0498Z" fill="white"/>
<path d="M60.89 1.41016L30.95 21.0002L60.89 40.5901V1.41016Z" fill="#EF373E"/>
<path d="M1 1.41016L30.95 21.0002L1 40.5901V1.41016Z" fill="#EF373E"/>
<path d="M26.96 1.57031H34.94V40.4303H26.96V1.57031Z" fill="#00468B"/>
<path d="M60.89 40.9601H1V1.04004H60.88V40.9601H60.89ZM59.82 2.10004H2.07V39.89H59.83V2.10004H59.82Z" fill="black"/>
<path d="M60.89 40.9601H1V1.04004H60.88V40.9601H60.89ZM59.82 2.10004H2.07V39.89H59.83V2.10004H59.82Z" stroke="black" stroke-width="0.25" stroke-miterlimit="3.86"/>
<path d="M246.98 11.8695V11.7695H241.23V11.8695C242.52 12.8195 242.83 13.8395 242.83 15.5095V30.5395L229.64 12.0395C229.5 11.8395 229.37 11.7695 229.1 11.7695H224.14V11.8695C225.43 12.8195 225.7 13.8395 225.7 15.5095V32.0295C225.7 33.6995 225.43 34.7195 224.14 35.6695V35.7695H229.92V35.6695C228.63 34.7195 228.32 33.6995 228.32 32.0295V16.9295L239.98 33.3495C241.78 35.8995 242.94 36.4095 245.05 36.4095H245.42V15.4995C245.42 13.8295 245.69 12.8095 246.98 11.8595V11.8695Z" fill="#231F20"/>
<path d="M222.7 31.7506H222.63C220.49 33.5906 219.64 34.0606 216.17 34.0606H211.65C210.56 34.0606 210.26 33.7206 210.26 31.7506V24.2006H216.45C217.71 24.2006 218.46 24.7106 218.9 25.0806H219L218.76 22.3606H210.26V14.9806C210.26 14.5406 210.53 13.7206 211.65 13.7206H216.17C218.96 13.7206 219.77 14.2606 221.17 15.3906H221.24L220.39 11.8906H204.68V11.9906C205.97 12.9406 206.28 13.9606 206.28 15.6306V32.1506C206.28 33.8206 205.97 34.8406 204.68 35.7906V35.8906H221.65L222.7 31.7406V31.7506Z" fill="#231F20"/>
<path d="M266.72 31.7496H266.65C264.51 33.5896 263.66 34.0596 260.19 34.0596H255.67C254.58 34.0596 254.28 33.7196 254.28 31.7496V24.1996H260.47C261.73 24.1996 262.48 24.7097 262.92 25.0797H263.02L262.78 22.3596H254.28V14.9796C254.28 14.5396 254.55 13.7197 255.67 13.7197H260.19C262.98 13.7197 263.79 14.2596 265.19 15.3896H265.26L264.41 11.8896H248.7V11.9896C249.99 12.9396 250.3 13.9596 250.3 15.6296V32.1497C250.3 33.8197 249.99 34.8396 248.7 35.7896V35.8896H265.67L266.72 31.7396V31.7496Z" fill="#231F20"/>
<path d="M377.61 31.7496H377.54C375.4 33.5896 374.55 34.0596 371.08 34.0596H366.56C365.47 34.0596 365.17 33.7196 365.17 31.7496V24.1996H371.36C372.62 24.1996 373.37 24.7097 373.81 25.0797H373.91L373.67 22.3596H365.17V14.9796C365.17 14.5396 365.44 13.7197 366.56 13.7197H371.08C373.87 13.7197 374.68 14.2596 376.08 15.3896H376.15L375.3 11.8896H359.59V11.9896C360.88 12.9396 361.19 13.9596 361.19 15.6296V32.1497C361.19 33.8197 360.88 34.8396 359.59 35.7896V35.8896H376.56L377.61 31.7396V31.7496Z" fill="#231F20" stroke="#231F20" stroke-width="0.05" stroke-miterlimit="10"/>
<path d="M200.6 31.7204L196.38 24.4104C199.64 23.5604 201.89 21.4204 201.89 18.0504C201.89 13.6304 198.52 11.9004 193.12 11.9004H184.08V12.0004C185.37 12.9504 185.61 13.9704 185.61 15.6404V32.1604C185.61 33.8304 185.37 34.8504 184.08 35.8004V35.9004H191.12V35.8004C189.83 34.8504 189.62 33.8304 189.62 32.1604V24.8204H190.98C192.07 24.8204 192.14 24.8504 192.85 26.1104L196.73 32.8804C198.4 35.7704 199.89 35.9104 201.66 35.9104H205.37V35.8104C203.47 34.9904 201.94 34.0104 200.61 31.7304L200.6 31.7204ZM192.16 22.9804H189.61V15.1904C189.61 13.9304 189.92 13.7304 190.97 13.7304H192.57C195.53 13.7304 197.57 14.7204 197.57 18.0504C197.57 21.3804 195.12 22.9804 192.16 22.9804Z" fill="#231F20"/>
<path d="M299.92 12.1704V12.0704H294.21V12.1704C295.06 12.9504 295.43 13.6304 295.43 14.5504C295.43 15.0304 295.36 15.5404 295.19 16.1504L291.93 29.2404L285.27 11.9004H284.73C283.23 11.9004 282.52 12.6504 282.01 14.1104L276.64 29.8904L273.21 16.2904C273.01 15.4404 272.84 14.7304 272.84 14.0804C272.84 13.4004 273.08 12.7904 273.72 12.1804V12.0804H266.55V12.1804C267.88 13.2304 268.32 13.7804 269.03 16.5304L274.16 36.3504H274.43C276.3 36.3504 277.18 34.9204 277.9 32.8804L283.17 17.7804L289.05 33.3204C289.93 35.7004 290.92 36.3504 292.11 36.3504H292.38L297.82 15.6104C298.33 13.6404 298.91 13.2004 299.93 12.1804L299.92 12.1704Z" fill="#231F20"/>
<path d="M312.48 36.0697C312.69 35.8797 312.84 35.6297 312.93 35.2997C313.02 35.0197 313.07 34.6597 313.07 34.2197C313.07 33.7797 312.98 33.2397 312.79 32.6197L311.43 28.4397H302.82L301.5 32.6197C301.29 33.2497 301.19 33.7797 301.19 34.2197C301.19 34.6597 301.24 35.0197 301.33 35.2997C301.42 35.6297 301.59 35.8797 301.82 36.0697H296.49C296.82 35.8797 297.14 35.6297 297.47 35.2997C297.72 35.0197 298 34.6597 298.31 34.2197C298.61 33.7797 298.87 33.2397 299.08 32.6197L304.9 14.6697C305.09 14.0397 305.18 13.5097 305.18 13.0797C305.18 12.6497 305.13 12.2897 305.04 12.0197C304.95 11.6897 304.8 11.4297 304.59 11.2197H307.57C308.27 11.2197 308.9 11.4197 309.47 11.8297C310.04 12.2397 310.44 12.7797 310.67 13.4497L316.88 32.6197C317.09 33.2497 317.34 33.7797 317.63 34.2197C317.92 34.6597 318.21 35.0197 318.48 35.2997C318.78 35.6297 319.11 35.8797 319.46 36.0697H312.51H312.48ZM310.91 26.6597L307.14 14.8397L303.38 26.6597H310.91Z" fill="#231F20" stroke="#231F20" stroke-width="0.05" stroke-miterlimit="10"/>
<path d="M333.21 22.89C334.84 23.29 336.13 24.06 337.08 25.23C338.03 26.4 338.51 27.81 338.51 29.48C338.51 30.46 338.31 31.35 337.92 32.16C337.52 32.97 336.96 33.66 336.21 34.23C335.47 34.8 334.55 35.25 333.47 35.57C332.39 35.9 331.16 36.06 329.79 36.06H320.59C320.85 35.87 321.08 35.62 321.29 35.29C321.48 35.01 321.64 34.65 321.8 34.21C321.95 33.77 322.03 33.23 322.03 32.61V14.66C322.03 14.03 321.95 13.5 321.8 13.07C321.65 12.64 321.48 12.28 321.29 12.01C321.08 11.68 320.85 11.42 320.59 11.21H329.34C331.66 11.21 333.47 11.77 334.76 12.9C336.05 14.03 336.7 15.53 336.7 17.41C336.7 18.6 336.37 19.67 335.72 20.63C335.07 21.59 334.23 22.34 333.21 22.88V22.89ZM325.58 22.09H328.14C328.96 22.09 329.69 21.97 330.33 21.74C330.97 21.51 331.51 21.19 331.94 20.78C332.37 20.37 332.7 19.91 332.94 19.37C333.17 18.84 333.29 18.26 333.29 17.63C333.29 16.38 332.93 15.36 332.2 14.57C331.47 13.78 330.25 13.39 328.52 13.39H325.58V22.07V22.09ZM334.85 28.96C334.85 28.29 334.72 27.65 334.46 27.04C334.2 26.44 333.82 25.91 333.31 25.47C332.8 25.03 332.16 24.68 331.4 24.42C330.64 24.16 329.76 24.04 328.76 24.04H325.58V33.8699H328.69C330.53 33.8699 332.02 33.47 333.15 32.67C334.28 31.87 334.85 30.63 334.85 28.96Z" fill="#231F20" stroke="#231F20" stroke-width="0.05" stroke-miterlimit="10"/>
<path d="M351.39 33.8707C352.32 33.8707 353.14 33.7907 353.85 33.6307C354.56 33.4707 355.16 33.2907 355.64 33.1107C356.22 32.8807 356.71 32.6207 357.1 32.3407L356.44 36.0707H340.39C340.65 35.8807 340.88 35.6307 341.09 35.3007C341.28 35.0207 341.44 34.6607 341.6 34.2207C341.75 33.7807 341.83 33.2407 341.83 32.6207V14.6707C341.83 14.0407 341.75 13.5107 341.6 13.0807C341.45 12.6507 341.28 12.2907 341.09 12.0207C340.88 11.6907 340.65 11.4307 340.39 11.2207H347.07C346.79 11.4307 346.55 11.7007 346.34 12.0207C346.15 12.3007 345.99 12.6507 345.85 13.0807C345.71 13.5107 345.64 14.0407 345.64 14.6707V33.8807H351.38L351.39 33.8707Z" fill="#231F20" stroke="#231F20" stroke-width="0.05" stroke-miterlimit="10"/>
<path d="M515.29 11.5895V11.5195H509.82V11.5895C510.26 12.1695 510.5 12.6795 510.5 13.2595C510.5 13.8395 510.26 14.4795 509.72 15.3695L505.47 22.2395L501.19 15.1995C500.71 14.4195 500.41 13.8695 500.41 13.3295C500.41 12.7895 500.51 12.3095 501.19 11.5995V11.5295H493.78V11.5995C495.14 12.9295 495.41 13.2995 496.67 15.3695L502.65 25.0895V31.7895C502.65 33.4595 502.41 34.4795 501.12 35.4296V35.5295H508.16V35.4296C506.87 34.4795 506.66 33.4595 506.66 31.7895V23.9695L512.13 15.3695C513.59 13.0895 513.93 12.6195 515.29 11.5995V11.5895Z" fill="#231F20"/>
<path d="M493.19 34.7101V23.3201H487.61V23.4201C489.11 24.6801 489.17 26.0701 489.17 27.6701V32.3601C489.17 33.3801 488.97 33.6201 488.01 33.8601C487.13 34.0601 486.31 34.1301 485.49 34.1301C479.27 34.1301 476.24 28.6601 476.24 23.2801C476.24 17.9001 478.82 12.9101 484.54 12.9101C487.26 12.9101 489.84 13.6901 492.09 15.9401H492.19L491.88 11.7201C489.84 11.1401 486.85 10.8701 484.84 10.8701C476.24 10.8701 471.92 17.4701 471.92 23.9301C471.92 30.3901 476.1 36.1701 485.32 36.1701C487.97 36.1701 490.69 35.6601 493.17 34.7101H493.19Z" fill="#231F20"/>
<path d="M468.54 31.3395L464.32 24.0295C467.58 23.1795 469.83 21.0395 469.83 17.6695C469.83 13.2495 466.46 11.5195 461.06 11.5195H452.02V11.6195C453.31 12.5695 453.55 13.5895 453.55 15.2595V31.7795C453.55 33.4495 453.31 34.4695 452.02 35.4195V35.5195H459.06V35.4195C457.77 34.4695 457.56 33.4495 457.56 31.7795V24.4395H458.92C460.01 24.4395 460.08 24.4695 460.79 25.7295L464.67 32.4995C466.34 35.3895 467.83 35.5295 469.6 35.5295H473.31V35.4296C471.41 34.6096 469.88 33.6295 468.55 31.3495L468.54 31.3395ZM460.11 22.6095H457.56V14.8195C457.56 13.5595 457.87 13.3595 458.92 13.3595H460.52C463.48 13.3595 465.52 14.3495 465.52 17.6795C465.52 21.0095 463.07 22.6095 460.11 22.6095Z" fill="#231F20"/>
<path d="M450.48 31.3805H450.41C448.27 33.2205 447.42 33.6905 443.95 33.6905H439.43C438.34 33.6905 438.04 33.3505 438.04 31.3805V23.8305H444.23C445.49 23.8305 446.24 24.3405 446.68 24.7105H446.78L446.54 21.9905H438.04V14.6105C438.04 14.1705 438.31 13.3505 439.43 13.3505H443.95C446.74 13.3505 447.55 13.8905 448.95 15.0205H449.02L448.17 11.5205H432.46V11.6205C433.75 12.5705 434.06 13.5905 434.06 15.2605V31.7805C434.06 33.4505 433.75 34.4705 432.46 35.4205V35.5205H449.43L450.48 31.3705V31.3805Z" fill="#231F20"/>
<path d="M430.76 11.6205V11.5205H425.01V11.6205C426.3 12.5705 426.61 13.5905 426.61 15.2605V30.2905L413.42 11.7905C413.28 11.5905 413.15 11.5205 412.88 11.5205H407.92V11.6205C409.21 12.5705 409.48 13.5905 409.48 15.2605V31.7805C409.48 33.4505 409.21 34.4705 407.92 35.4205V35.5205H413.7V35.4205C412.41 34.4705 412.1 33.4505 412.1 31.7805V16.6805L423.76 33.1005C425.56 35.6505 426.72 36.1605 428.83 36.1605H429.2V15.2505C429.2 13.5805 429.47 12.5605 430.76 11.6105V11.6205Z" fill="#231F20"/>
<path d="M406.38 31.3795H406.31C404.17 33.2195 403.32 33.6895 399.85 33.6895H395.33C394.24 33.6895 393.94 33.3495 393.94 31.3795V23.8295H400.13C401.39 23.8295 402.14 24.3395 402.58 24.7095H402.68L402.44 21.9895H393.94V14.6095C393.94 14.1695 394.21 13.3495 395.33 13.3495H399.85C402.64 13.3495 403.45 13.8895 404.85 15.0195H404.92L404.07 11.5195H388.36V11.6195C389.65 12.5695 389.96 13.5895 389.96 15.2595V31.7795C389.96 33.4495 389.65 34.4695 388.36 35.4195V35.5195H405.33L406.38 31.3695V31.3795Z" fill="#231F20"/>
</svg>
